<?xml version="1.0" encoding="utf-8"?>
<svg version="1.1" xmlns:xlink="http://www.w3.org/1999/xlink" width="91px" height="89px" xmlns="http://www.w3.org/2000/svg">
  <g transform="matrix(1 0 0 1 -163 -423 )">
    <path d="M 165 467.5  A 42.5 42.5 0 0 1 207.5 425 L 209.5 425  A 42.5 42.5 0 0 1 252 467.5 A 42.5 42.5 0 0 1 209.5 510 L 207.5 510  A 42.5 42.5 0 0 1 165 467.5 Z " fill-rule="nonzero" fill="#ffffff" stroke="none" />
    <path d="M 164 467.5  A 43.5 43.5 0 0 1 207.5 424 L 209.5 424  A 43.5 43.5 0 0 1 253 467.5 A 43.5 43.5 0 0 1 209.5 511 L 207.5 511  A 43.5 43.5 0 0 1 164 467.5 Z " stroke-width="2" stroke="#666666" fill="none" stroke-opacity="0.4" />
  </g>
</svg>