<?xml version="1.0" standalone="no"?><!DOCTYPE svg PUBLIC "-//W3C//DTD SVG 1.1//EN" "http://www.w3.org/Graphics/SVG/1.1/DTD/svg11.dtd"><svg t="1587763617078" class="icon" viewBox="0 0 1024 1024" version="1.1" xmlns="http://www.w3.org/2000/svg" p-id="4699" xmlns:xlink="http://www.w3.org/1999/xlink" width="200" height="200"><defs><style type="text/css">@font-face { font-family: uc-nexus-iconfont; src: url("chrome-extension://pogijhnlcfmcppgimcaccdkmbedjkmhi/res/font_9qmmi8b8jsxxbt9.woff") format("woff"), url("chrome-extension://pogijhnlcfmcppgimcaccdkmbedjkmhi/res/font_9qmmi8b8jsxxbt9.ttf") format("truetype"); }
</style></defs><path d="M818.691 197.649H411.325c-55.228 0-100 44.772-100 100v87.639c0 55.229 44.772 100 100 100h52.552c-37.555 0-68-30.445-68-68v-57.639c0-37.555 30.445-68 68-68h68.355c37.555 0 68 30.445 68 68v57.639c0 37.555-30.445 68-68 68h286.459c55.228 0 100-44.771 100-100v-87.639c0-55.229-44.772-100-100-100z m26.442 217.547c0 37.555-30.445 68-68 68h-66.241c-37.555 0-68-30.445-68-68v-58.049c0-37.555 30.445-68 68-68h66.241c37.555 0 68 30.445 68 68v58.049z" fill="#FDCC03" p-id="4700"></path><path d="M896.491 391.649H332.279c-56.323 0-101.982 44.772-101.982 100v267.669c0 55.228 45.659 100 101.982 100h564.212c56.323 0 101.982-44.772 101.982-100V491.649c0-55.228-45.659-100-101.982-100z m63.628 340h-694.1v-50h694.1v50zM172.119 808.941c0 13.647-11.193 24.71-25 24.71s-25-11.063-25-24.71V255.36c0-13.647 11.193-24.71 25-24.71s25 11.063 25 24.71v553.581z" fill="#FDCC03" p-id="4701"></path><path d="M213.452 834.318c0 13.807-11.193 25-25 25h-87c-13.807 0-25-11.193-25-25s11.193-25 25-25h87c13.807 0 25 11.193 25 25z" fill="#FDCC03" p-id="4702"></path><path d="M833.113 784.709H297.367c-63.579 0-115.304-53.383-115.304-119V426.876c0-65.617 51.725-119 115.304-119h535.747c63.579 0 115.304 53.383 115.304 119v238.833c-0.001 65.617-51.726 119-115.305 119zM297.367 357.876c-36.009 0-65.304 30.953-65.304 69v238.833c0 38.047 29.295 69 65.304 69h535.747c36.009 0 65.304-30.953 65.304-69V426.876c0-38.047-29.295-69-65.304-69H297.367z" fill="#482F1B" p-id="4703"></path><path d="M215.963 603.709h694.1v50h-694.1zM122.063 727.841c0 15.391-11.193 27.869-25 27.869s-25-12.477-25-27.869V180.579c0-15.391 11.193-27.869 25-27.869s25 12.477 25 27.869v547.262z" fill="#482F1B" p-id="4704"></path><path d="M163.396 756.378c0 13.807-11.949 25-26.688 25H53.084c-14.74 0-26.688-11.193-26.688-25s11.949-25 26.688-25h83.623c14.74 0 26.689 11.192 26.689 25zM310.111 313.709a51.001 51.001 0 0 1-0.048-2v-94c0-26.467 20.493-48 45.682-48H771.24c25.188 0 45.682 21.533 45.682 48v94c0 0.671-0.022 1.336-0.048 2h50.023c0.013-0.666 0.025-1.331 0.025-2v-94c0-54.037-42.923-98-95.682-98H355.744c-52.759 0-95.682 43.963-95.682 98v94c0 0.669 0.012 1.335 0.025 2h50.024z" fill="#482F1B" p-id="4705"></path><path d="M628.845 309.709v-30.131c0-8.75 6.552-15.869 14.604-15.869h73.982c8.054 0 14.605 7.119 14.605 15.869v30.131h50v-30.131c0-36.32-28.981-65.869-64.605-65.869h-73.982c-35.623 0-64.604 29.548-64.604 65.869v30.131h50zM394.87 309.709v-30.131c0-8.75 6.552-15.869 14.605-15.869h73.982c8.053 0 14.604 7.119 14.604 15.869v30.131h50v-30.131c0-36.32-28.981-65.869-64.604-65.869h-73.982c-35.623 0-64.605 29.548-64.605 65.869v30.131h50z" fill="#482F1B" p-id="4706"></path></svg>