<?xml version="1.0" standalone="no"?><!DOCTYPE svg PUBLIC "-//W3C//DTD SVG 1.1//EN" "http://www.w3.org/Graphics/SVG/1.1/DTD/svg11.dtd"><svg t="1587763699023" class="icon" viewBox="0 0 1024 1024" version="1.1" xmlns="http://www.w3.org/2000/svg" p-id="18031" xmlns:xlink="http://www.w3.org/1999/xlink" width="200" height="200"><defs><style type="text/css">@font-face { font-family: uc-nexus-iconfont; src: url("chrome-extension://pogijhnlcfmcppgimcaccdkmbedjkmhi/res/font_9qmmi8b8jsxxbt9.woff") format("woff"), url("chrome-extension://pogijhnlcfmcppgimcaccdkmbedjkmhi/res/font_9qmmi8b8jsxxbt9.ttf") format("truetype"); }
</style></defs><path d="M781.312 827.392H295.936c-33.792 0-61.44-27.648-61.44-61.44V210.944c0-33.792 27.648-61.44 61.44-61.44h484.864c33.792 0 61.44 27.648 61.44 61.44v555.008c0.512 33.792-27.136 61.44-60.928 61.44z" fill="#FFDB62" p-id="18032"></path><path d="M258.56 413.696a42.4448 42.4448 0 0 1-24.064-38.4c0-23.552 18.944-42.496 42.496-42.496s42.496 18.944 42.496 42.496c0 12.288-5.632 24.064-14.848 32.256 17.408 97.792 64 142.848 142.848 142.848 78.848 0 125.952-45.056 143.872-141.824-10.24-8.192-15.872-20.48-15.872-33.28 0-23.552 18.944-42.496 42.496-42.496 23.552 0 42.496 18.944 42.496 42.496 0 16.384-9.216 30.208-22.528 37.376-21.504 120.832-86.016 184.832-190.976 184.832-103.424 0-167.424-63.488-188.416-183.808z m539.136 418.304v29.696c0 37.888-30.72 68.096-68.096 68.096h-563.2c-37.888 0-68.096-30.72-68.096-68.096V264.704c0-37.888 30.72-68.096 68.096-68.096h59.904v-29.696c0-37.888 30.72-68.096 68.096-68.096h567.296c37.888 0 68.096 30.72 68.096 68.096v597.504c0 37.888-30.72 68.096-68.096 68.096l-64-0.512z m0-51.2h64c9.216 0 16.896-7.68 16.896-16.896V166.4c0-9.216-7.68-16.896-16.896-16.896H294.4c-9.216 0-16.896 7.68-16.896 16.896v29.696h452.096c37.888 0 68.096 30.72 68.096 68.096v516.608zM166.4 247.296c-9.216 0-16.896 7.68-16.896 16.896v597.504c0 9.216 7.68 16.896 16.896 16.896h563.2c9.216 0 16.896-7.68 16.896-16.896V264.704c0-9.216-7.68-16.896-16.896-16.896h-563.2z" fill="#333333" p-id="18033"></path></svg>