<?xml version="1.0" encoding="utf-8"?>
<svg version="1.1" xmlns:xlink="http://www.w3.org/1999/xlink" width="50px" height="50px" xmlns="http://www.w3.org/2000/svg">
  <g transform="matrix(1 0 0 1 -407 -322 )">
    <path d="M 409 347  A 23 23 0 0 1 432 324 A 23 23 0 0 1 455 347 A 23 23 0 0 1 432 370 A 23 23 0 0 1 409 347 Z " fill-rule="nonzero" fill="#ffffff" stroke="none" />
    <path d="M 408 347  A 24 24 0 0 1 432 323 A 24 24 0 0 1 456 347 A 24 24 0 0 1 432 371 A 24 24 0 0 1 408 347 Z " stroke-width="2" stroke="#666666" fill="none" stroke-opacity="0.4" />
  </g>
</svg>